<?xml version="1.0" encoding="UTF-8"?>
<svg id="Calque_2" data-name="Calque 2" xmlns="http://www.w3.org/2000/svg" viewBox="0 0 190.54 96.99">
  <defs>
    <style>
      .cls-1 {
        fill: #dadada;
      }

      .cls-2 {
        fill: #fff;
      }

      .cls-3 {
        fill: #e63919;
      }
    </style>
  </defs>
  <g id="Calque_1-2" data-name="Calque 1">
    <g>
      <g>
        <path class="cls-2" d="M1.67.07C.35.32.02,1.22,0,2.44c.13,11.49.67,51.67.93,71.2-.76,10.87,11.01,22.41,22.4,23.3,2.34.28,3.83-.42,3.6-2.95-.09-10.07-.46-46.76-.63-64.43-.27-4.85.56-9.74-1-14.19C22.4,5.98,11.13-.62,1.77.05l-.09.02Z"/>
        <path class="cls-3" d="M56.73,1.41c-2.65,1.28-4.25,3.9-5.82,6.36-2.97,4.84-7.38,12.18-10.28,17-1.48,2.53-3.04,5.07-3.81,7.84-.74,2.87-.69,5.22-.73,8.58.24,9.84-.52,22.56.35,31.24.39.82,1.01-.35,1.5-.98,7.99-12.94,32.16-52.92,40.34-66.33,1.46-2.45,2.85-4.57-1.45-4.84-4.63-.15-15.29-.95-19.96,1.06l-.13.06Z"/>
        <path class="cls-2" d="M57.09,66.09c-4.07.36-9.22,11.5-12.2,15.71-1.75,3.42-8.11,11.26-4.92,13.78,2.7,1.6,6.53,1.22,9.74,1.39,5.99.02,13.76.07,19.1-.06,2.41-.16,5.44-.05,7.24-1.48,2.71-2.69-4.6-11.21-6.52-14.68-3.12-4.1-8.26-14.41-12.34-14.66h-.1Z"/>
      </g>
      <g>
        <path class="cls-2" d="M105.94,41.68c-.18.2-.3.4-.3.6s.18.53.3.73l10.14,17.56c.66,1.14.9,2.14.9,3.07,0,2.87-3.06,5.41-5.46,5.41-1.32,0-2.64-.73-3.78-2.74l-8.22-14.56c-.18-.33-.3-.47-.54-.47-.18,0-.3.13-.42.27l-1.92,2.61c-.36.53-.42,1.34-.42,2v8.15c0,3.81-2.76,4.74-5.16,4.74s-5.04-.94-5.04-4.74V26.79c0-3.81,2.76-4.74,5.04-4.74,2.4,0,5.16.94,5.16,4.74v9.62c0,.47.12.73.42.73.18,0,.3-.13.36-.2l8.76-12.62c1.14-1.67,2.4-2.27,3.6-2.27,2.34,0,5.46,2.6,5.46,5.54,0,1-.36,2.14-1.2,3.34l-7.68,10.75Z"/>
        <path class="cls-2" d="M118.9,58.65c0-8.82,6.9-11.02,12.9-11.02h2.58c.36,0,.72-.13.72-.67v-.33c0-2.4-.96-3.47-3.66-3.47-1.8,0-3.48.47-5.04,1.74-.6.47-1.26.67-1.86.67-1.26,0-2.52-.8-3.3-2.2-.48-.8-.84-1.74-.84-2.67,0-1.6.9-2.87,1.92-3.74,2.64-2.27,6.6-3.47,9.6-3.47,10.74,0,12.9,5.81,12.9,15.49v7.75c0,1.4.48,1.87,1.32,2,1.98.33,2.82,1.94,2.82,5.14,0,3.61-2.1,5.21-5.82,5.21-3,0-4.74-1-6.12-3.01-.06-.2-.36-.53-.6-.53-.3,0-.42.13-.66.4-1.68,2.14-4.32,3.14-6.9,3.14-8.04,0-9.96-5.54-9.96-10.42ZM135.1,55.98v-.87c0-.67-.3-.87-.72-.87h-1.2c-1.92,0-4.74,0-4.74,3.14,0,2.2,1.68,2.67,2.82,2.67,2.76,0,3.84-1.8,3.84-4.07Z"/>
        <path class="cls-2" d="M150.64,29.73c-2.76,0-4.56-2.14-4.56-5.08,0-3.14,1.8-5.28,4.56-5.28s4.62,2.14,4.62,5.28c0,2.94-1.92,5.08-4.62,5.08ZM161.74,64.26c0,3.67-2.4,4.81-4.86,4.81s-4.86-1.14-4.86-4.81v-25.98c0-3.67,2.46-4.81,4.86-4.81s4.86,1.14,4.86,4.81v25.98ZM163.12,29.73c-2.76,0-4.56-2.14-4.56-5.08,0-3.14,1.8-5.28,4.56-5.28s4.62,2.14,4.62,5.28c0,2.94-1.92,5.08-4.62,5.08Z"/>
        <path class="cls-2" d="M166.84,61.99c0-2.47,2.04-5.21,4.44-5.21.72,0,1.5.33,2.34.93,1.68,1.27,3.36,1.87,5.22,1.87,1.32,0,2.28-.6,2.28-1.74,0-1-.78-1.47-2.28-2l-2.46-.87c-5.76-2-9-5.74-9-10.55,0-7.08,4.56-10.95,11.46-10.95,2.52,0,5.76.67,8.1,2.34,1.38.94,2.1,2.34,2.1,3.74,0,2.67-1.62,5.08-4.08,5.08-.6,0-1.2-.2-1.92-.53-1.86-.94-2.94-1.14-4.2-1.14s-2.04.73-2.04,1.54c0,.67.6,1.2,2.04,1.74l2.4.94c6.54,2.54,9.3,5.34,9.3,10.69,0,7.28-4.8,11.22-11.7,11.22-4.5,0-8.22-1.47-10.5-3.81-1.08-1.07-1.5-2.2-1.5-3.27Z"/>
      </g>
      <g>
        <path class="cls-1" d="M95.49,90.97c-1.95,1.62-5.27,2.04-7.22-.19-2.81-3.13-1.18-9.13,3.42-9.15,1.47,0,2.18.46,2.75,1.05v-.74h3.55v6.97h.76v3.17h-.92c-.9,0-1.76-.4-2.33-1.11ZM92.46,88.68h.13c1.28,0,1.87-.59,1.87-1.76s-.61-1.81-1.85-1.81h-.13c-1.28,0-1.87.59-1.87,1.76s.61,1.81,1.85,1.81Z"/>
        <path class="cls-1" d="M100.95,81.94h3.55v1.01c1.68-2.04,6.53-1.85,6.53,2.69v6.36h-3.55v-5.86c0-.94-.48-1.41-1.45-1.41h-.08c-.99,0-1.45.44-1.45,1.36v5.9h-3.55v-10.06Z"/>
        <path class="cls-1" d="M121.65,90.97c-1.95,1.62-5.27,2.04-7.22-.19-2.81-3.13-1.18-9.13,3.42-9.15,1.47,0,2.18.46,2.75,1.05v-.74h3.55v6.97h.76v3.17h-.92c-.9,0-1.76-.4-2.33-1.11ZM118.63,88.68h.13c1.28,0,1.87-.59,1.87-1.76s-.61-1.81-1.85-1.81h-.13c-1.28,0-1.87.59-1.87,1.76s.61,1.81,1.85,1.81Z"/>
        <path class="cls-1" d="M127.12,78.27h3.55v13.73h-3.55v-13.73Z"/>
        <path class="cls-1" d="M136.92,90.53l-4.56-8.59h4.14l2.39,4.83,2.33-4.83h4.07l-6.95,13.67h-3.99l2.56-5.08Z"/>
        <path class="cls-1" d="M147.93,87.93v-2.83h-1.51v-3.15h1.51v-2.94h3.57v2.94h2.33v3.15h-2.33v3.78l2.33-.94v3.46s-1.57.84-2.71.84c-2.88,0-3.19-1.91-3.19-4.3Z"/>
        <path class="cls-1" d="M157.84,76.78h.13c1.36,0,2.06.69,2.06,2.02s-.67,1.95-2.08,1.95h-.13c-1.39,0-2.06-.67-2.06-2s.65-1.97,2.08-1.97ZM156.12,81.94h3.55v10.06h-3.55v-10.06Z"/>
        <path class="cls-1" d="M161.64,86.98c0-4.01,4.22-6.8,7.71-4.87v3.34c-1.13-1.26-3.99-1.05-3.99,1.49-.02,2.06,2.37,3.09,3.99,1.45v3.38c-3.53,1.79-7.71-.65-7.71-4.79Z"/>
        <path class="cls-1" d="M171.72,91.69v-3.02c.99,0,2.1.84,3.07.84.5,0,.88-.23.88-.61,0-.9-1.47-.36-3.15-1.62-1.53-1.13-1.13-3.63.19-4.7,1.37-1.22,4.05-1.2,5.94-.44v2.79c-.92-.13-1.93-.67-2.73-.67-.55,0-.86.21-.86.57,0,1.03,4.18.27,4.18,3.72,0,2.33-1.79,3.82-4.56,3.82-1.03,0-2.04-.23-2.96-.67Z"/>
      </g>
    </g>
  </g>
</svg>