<?xml version="1.0" encoding="UTF-8"?>
<svg id="Calque_2" data-name="Calque 2" xmlns="http://www.w3.org/2000/svg" viewBox="0 0 192.34 97.92">
  <defs>
    <style>
      .cls-1 {
        font-family: DINosaur-Black, DINosaur;
        font-size: 66.79px;
        font-weight: 800;
      }

      .cls-1, .cls-2 {
        fill: #fff;
      }

      .cls-3 {
        fill: #e63919;
      }

      .cls-4 {
        letter-spacing: 0em;
      }

      .cls-5 {
        fill: #dadada;
        font-family: BDSupperBold, 'BD Supper';
        font-size: 21px;
      }
    </style>
  </defs>
  <g id="Calque_1-2" data-name="Calque 1">
    <g>
      <g>
        <path class="cls-2" d="M1.67.07C.35.32.02,1.22,0,2.44c.13,11.49.67,51.67.93,71.2-.76,10.87,11.01,22.41,22.4,23.3,2.34.28,3.83-.42,3.6-2.95-.09-10.07-.46-46.76-.63-64.43-.27-4.85.56-9.74-1-14.19C22.4,5.98,11.13-.62,1.77.05l-.09.02Z"/>
        <path class="cls-3" d="M56.73,1.41c-2.65,1.28-4.25,3.9-5.82,6.36-2.97,4.84-7.38,12.18-10.28,17-1.48,2.53-3.04,5.07-3.81,7.84-.74,2.87-.69,5.22-.73,8.58.24,9.84-.52,22.56.35,31.24.39.82,1.01-.35,1.5-.98,7.99-12.94,32.16-52.92,40.34-66.33,1.46-2.45,2.85-4.57-1.45-4.84-4.63-.15-15.29-.95-19.96,1.06l-.13.06Z"/>
        <path class="cls-2" d="M57.09,66.09c-4.07.36-9.22,11.5-12.2,15.71-1.75,3.42-8.11,11.26-4.92,13.78,2.7,1.6,6.53,1.22,9.74,1.39,5.99.02,13.76.07,19.1-.06,2.41-.16,5.44-.05,7.24-1.48,2.71-2.69-4.6-11.21-6.52-14.68-3.12-4.1-8.26-14.41-12.34-14.66h-.1Z"/>
      </g>
      <text class="cls-1" transform="translate(82 68.8) scale(.9 1)"><tspan x="0" y="0">Kaïs</tspan></text>
      <text class="cls-5" transform="translate(86.02 92)"><tspan x="0" y="0">analy</tspan><tspan class="cls-4" x="59.68" y="0">ti</tspan><tspan x="74.78" y="0">cs</tspan></text>
    </g>
  </g>
</svg>