<?xml version="1.0" encoding="UTF-8"?>
<svg id="Calque_2" data-name="Calque 2" xmlns="http://www.w3.org/2000/svg" viewBox="0 0 193.68 96.99">
  <defs>
    <style>
      .cls-1 {
        fill: #dadada;
      }

      .cls-2 {
        fill: #fff;
      }

      .cls-3 {
        fill: #645ca5;
      }
    </style>
  </defs>
  <g id="Calque_1-2" data-name="Calque 1">
    <g>
      <path class="cls-2" d="M1.67.07C.35.32.02,1.22,0,2.44c.13,11.49.67,51.67.93,71.2-.76,10.87,11.01,22.41,22.4,23.3,2.34.28,3.83-.42,3.6-2.95-.09-10.07-.46-46.76-.63-64.43-.27-4.85.56-9.74-1-14.19C22.4,5.98,11.13-.62,1.77.05l-.09.02Z"/>
      <path class="cls-3" d="M56.73,1.41c-2.65,1.28-4.25,3.9-5.82,6.36-2.97,4.84-7.38,12.18-10.28,17-1.48,2.53-3.04,5.07-3.81,7.84-.74,2.87-.69,5.22-.73,8.58.24,9.84-.52,22.56.35,31.24.39.82,1.01-.35,1.5-.98,7.99-12.94,32.16-52.92,40.34-66.33,1.46-2.45,2.85-4.57-1.45-4.84-4.63-.15-15.29-.95-19.96,1.06l-.13.06Z"/>
      <path class="cls-2" d="M57.09,66.09c-4.07.36-9.22,11.5-12.2,15.71-1.75,3.42-8.11,11.26-4.92,13.78,2.7,1.6,6.53,1.22,9.74,1.39,5.99.02,13.76.07,19.1-.06,2.41-.16,5.44-.05,7.24-1.48,2.71-2.69-4.6-11.21-6.52-14.68-3.12-4.1-8.26-14.41-12.34-14.66h-.1Z"/>
    </g>
    <g>
      <path class="cls-2" d="M105.94,41.68c-.18.2-.3.4-.3.6s.18.53.3.73l10.14,17.56c.66,1.14.9,2.14.9,3.07,0,2.87-3.06,5.41-5.46,5.41-1.32,0-2.64-.73-3.78-2.74l-8.22-14.56c-.18-.33-.3-.47-.54-.47-.18,0-.3.13-.42.27l-1.92,2.61c-.36.53-.42,1.34-.42,2v8.15c0,3.81-2.76,4.74-5.16,4.74s-5.04-.94-5.04-4.74V26.79c0-3.81,2.76-4.74,5.04-4.74,2.4,0,5.16.94,5.16,4.74v9.62c0,.47.12.73.42.73.18,0,.3-.13.36-.2l8.76-12.62c1.14-1.67,2.4-2.27,3.6-2.27,2.34,0,5.46,2.6,5.46,5.54,0,1-.36,2.14-1.2,3.34l-7.68,10.75Z"/>
      <path class="cls-2" d="M118.9,58.65c0-8.82,6.9-11.02,12.9-11.02h2.58c.36,0,.72-.13.72-.67v-.33c0-2.4-.96-3.47-3.66-3.47-1.8,0-3.48.47-5.04,1.74-.6.47-1.26.67-1.86.67-1.26,0-2.52-.8-3.3-2.2-.48-.8-.84-1.74-.84-2.67,0-1.6.9-2.87,1.92-3.74,2.64-2.27,6.6-3.47,9.6-3.47,10.74,0,12.9,5.81,12.9,15.49v7.75c0,1.4.48,1.87,1.32,2,1.98.33,2.82,1.94,2.82,5.14,0,3.61-2.1,5.21-5.82,5.21-3,0-4.74-1-6.12-3.01-.06-.2-.36-.53-.6-.53-.3,0-.42.13-.66.4-1.68,2.14-4.32,3.14-6.9,3.14-8.04,0-9.96-5.54-9.96-10.42ZM135.1,55.98v-.87c0-.67-.3-.87-.72-.87h-1.2c-1.92,0-4.74,0-4.74,3.14,0,2.2,1.68,2.67,2.82,2.67,2.76,0,3.84-1.8,3.84-4.07Z"/>
      <path class="cls-2" d="M150.64,29.73c-2.76,0-4.56-2.14-4.56-5.08,0-3.14,1.8-5.28,4.56-5.28s4.62,2.14,4.62,5.28c0,2.94-1.92,5.08-4.62,5.08ZM161.74,64.26c0,3.67-2.4,4.81-4.86,4.81s-4.86-1.14-4.86-4.81v-25.98c0-3.67,2.46-4.81,4.86-4.81s4.86,1.14,4.86,4.81v25.98ZM163.12,29.73c-2.76,0-4.56-2.14-4.56-5.08,0-3.14,1.8-5.28,4.56-5.28s4.62,2.14,4.62,5.28c0,2.94-1.92,5.08-4.62,5.08Z"/>
      <path class="cls-2" d="M166.84,61.99c0-2.47,2.04-5.21,4.44-5.21.72,0,1.5.33,2.34.93,1.68,1.27,3.36,1.87,5.22,1.87,1.32,0,2.28-.6,2.28-1.74,0-1-.78-1.47-2.28-2l-2.46-.87c-5.76-2-9-5.74-9-10.55,0-7.08,4.56-10.95,11.46-10.95,2.52,0,5.76.67,8.1,2.34,1.38.94,2.1,2.34,2.1,3.74,0,2.67-1.62,5.08-4.08,5.08-.6,0-1.2-.2-1.92-.53-1.86-.94-2.94-1.14-4.2-1.14s-2.04.73-2.04,1.54c0,.67.6,1.2,2.04,1.74l2.4.94c6.54,2.54,9.3,5.34,9.3,10.69,0,7.28-4.8,11.22-11.7,11.22-4.5,0-8.22-1.47-10.5-3.81-1.08-1.07-1.5-2.2-1.5-3.27Z"/>
    </g>
    <g>
      <path class="cls-1" d="M87.41,79.13h4.89c1.3,0,2.41.36,3.23,1.01,1.76,1.34,1.74,4.56-.13,5.79,2.29.59,2.69,2.65,2.69,3.67,0,2.79-2.1,4.22-4.85,4.2h-5.84v-14.68ZM92.36,90.91h.13c1.2,0,1.74-.57,1.74-1.66s-.57-1.72-1.72-1.72h-.13c-1.2,0-1.76.57-1.76,1.68s.59,1.7,1.74,1.7ZM92.05,84.74h.1c.97,0,1.43-.46,1.43-1.36s-.46-1.39-1.43-1.39h-.08c-.99,0-1.43.46-1.43,1.36s.46,1.39,1.41,1.39Z"/>
      <path class="cls-1" d="M108.32,92.78c-1.95,1.62-5.27,2.04-7.22-.19-2.81-3.13-1.18-9.13,3.42-9.15,1.47,0,2.18.46,2.75,1.05v-.73h3.55v6.97h.76v3.17h-.92c-.9,0-1.76-.4-2.33-1.11ZM105.3,90.49h.13c1.28,0,1.87-.59,1.87-1.76s-.61-1.81-1.85-1.81h-.13c-1.28,0-1.87.59-1.87,1.76s.61,1.81,1.85,1.81Z"/>
      <path class="cls-1" d="M113.34,88.79c0-4.01,4.22-6.8,7.71-4.87v3.34c-1.13-1.26-3.99-1.05-3.99,1.49-.02,2.06,2.37,3.09,3.99,1.45v3.38c-3.53,1.78-7.71-.65-7.71-4.79Z"/>
      <path class="cls-1" d="M123.48,80.08h3.55v6.99l3.25-3.32h4.72l-5.61,5.42c.8,1.34,1.39,1.68,1.74,1.68,1.01,0,1.15-1.7,1.15-1.7h3.17c-.4,5.23-5.61,6.63-8.44,2.23v2.44h-3.55v-13.73Z"/>
      <path class="cls-1" d="M138.64,84.87c2.02-1.99,6.24-1.99,8.25,0,2.14,1.91,2.12,5.86,0,7.77-2.02,2-6.24,2-8.25,0-2.12-1.91-2.14-5.86,0-7.77ZM142.7,90.53h.13c1.28,0,1.87-.59,1.87-1.76s-.61-1.81-1.85-1.81h-.13c-1.28,0-1.87.59-1.87,1.76s.61,1.81,1.85,1.81Z"/>
      <path class="cls-1" d="M151.39,88.69h-1.2v-3.15h1.2v-2.6c0-3.46,2.98-5.02,5.86-3.86v3.36c-.42-.29-.76-.44-1.26-.44-.86,0-1.05.57-1.05,1.72v1.83h2.31v3.15h-2.31v5.12h-3.55v-5.12Z"/>
      <path class="cls-1" d="M160.06,88.69h-1.2v-3.15h1.2v-2.6c0-3.46,2.98-5.02,5.86-3.86v3.36c-.42-.29-.76-.44-1.26-.44-.86,0-1.05.57-1.05,1.72v1.83h2.31v3.15h-2.31v5.12h-3.55v-5.12Z"/>
      <path class="cls-1" d="M169.7,78.59h.13c1.36,0,2.06.69,2.06,2.02s-.67,1.95-2.08,1.95h-.13c-1.39,0-2.06-.67-2.06-1.99s.65-1.97,2.08-1.97ZM167.98,83.75h3.55v10.06h-3.55v-10.06Z"/>
      <path class="cls-1" d="M173.5,88.79c0-4.01,4.22-6.8,7.71-4.87v3.34c-1.13-1.26-3.99-1.05-3.99,1.49-.02,2.06,2.37,3.09,3.99,1.45v3.38c-3.53,1.78-7.71-.65-7.71-4.79Z"/>
      <path class="cls-1" d="M183.25,88.71c.04-4.22,3.28-5.19,5.31-5.19,4.56,0,5.31,4.12,5.08,6.3h-6.93c.04.65.63,1.55,1.81,1.55h.19c1.18,0,1.53-.73,1.53-.73h3.3c-.69,2.5-2.79,3.49-4.87,3.51-1.66.02-5.46-.71-5.42-5.44ZM190.28,87.57c-.06-.97-.76-1.43-1.74-1.43h-.04c-.94,0-1.7.46-1.76,1.43h3.55Z"/>
    </g>
  </g>
</svg>